<?xml version="1.0" standalone="no"?>
<!DOCTYPE svg PUBLIC "-//W3C//DTD SVG 20010904//EN"
 "http://www.w3.org/TR/2001/REC-SVG-20010904/DTD/svg10.dtd">
<svg version="1.0" xmlns="http://www.w3.org/2000/svg"
 width="32.000000pt" height="32.000000pt" viewBox="0 0 32.000000 32.000000"
 preserveAspectRatio="xMidYMid meet">

<g transform="translate(0.000000,32.000000) scale(0.100000,-0.100000)"
fill="#000000" stroke="none">
<path d="M10 160 c0 -40 4 -70 10 -70 6 0 10 26 10 58 l1 57 22 -55 c12 -30
26 -55 31 -55 6 0 20 25 32 55 l23 55 1 -57 c0 -32 5 -58 10 -58 6 0 10 30 10
70 0 90 -19 94 -51 11 l-24 -60 -23 60 c-33 82 -52 79 -52 -11z"/>
<path d="M211 164 c-13 -36 -21 -67 -18 -70 3 -3 8 4 12 15 9 29 60 29 75 0 7
-11 14 -18 17 -15 8 8 -41 136 -52 136 -6 0 -21 -30 -34 -66z m53 -1 c6 -20 4
-23 -18 -23 -29 0 -31 6 -15 47 11 30 19 24 33 -24z"/>
</g>
</svg>
